<?xml version="1.0" standalone="no"?>
<!DOCTYPE svg PUBLIC "-//W3C//DTD SVG 20010904//EN"
 "http://www.w3.org/TR/2001/REC-SVG-20010904/DTD/svg10.dtd">
<svg version="1.0" xmlns="http://www.w3.org/2000/svg"
 width="512.000000pt" height="512.000000pt" viewBox="0 0 512.000000 512.000000"
 preserveAspectRatio="xMidYMid meet">

<g transform="translate(0.000000,512.000000) scale(0.100000,-0.100000)"
fill="#f98520" stroke="none">
<path d="M430 4813 c-99 -19 -241 -126 -293 -221 -59 -109 -57 -45 -57 -1487
0 -1440 -2 -1378 56 -1486 40 -72 119 -145 203 -187 l75 -37 655 -5 656 -5 3
-213 2 -212 -264 0 c-158 0 -286 -5 -318 -11 -83 -18 -159 -62 -216 -124 -71
-78 -82 -119 -82 -317 0 -155 1 -159 25 -183 l24 -25 1661 0 1661 0 24 25 c24
24 25 28 25 183 0 196 -12 240 -84 319 -55 60 -132 104 -214 122 -32 6 -160
11 -318 11 l-264 0 2 212 3 213 655 5 655 5 68 32 c80 38 173 122 210 191 59
109 57 45 57 1487 0 1442 2 1378 -57 1487 -37 69 -130 153 -210 191 l-68 32
-2125 1 c-1169 1 -2136 -1 -2150 -3z m4288 -184 c65 -32 99 -66 135 -133 l22
-41 3 -774 2 -773 -35 30 c-19 17 -53 42 -75 54 l-40 23 -2 713 -3 714 -37 34
-38 34 -2090 0 -2090 0 -38 -34 -37 -34 -3 -1192 -2 -1191 24 -24 25 -25 617
0 617 0 48 -45 c32 -30 57 -45 75 -45 14 0 65 17 113 39 l87 38 45 -23 c24
-13 82 -37 129 -54 l85 -31 33 -89 c50 -131 37 -125 272 -125 235 0 222 -6
272 125 l33 89 85 31 c47 17 105 41 129 54 l45 23 87 -38 c48 -22 99 -39 113
-39 18 0 43 15 75 45 l48 45 357 0 c344 0 358 -1 398 -21 79 -40 153 -60 243
-66 145 -8 261 28 383 119 l54 40 -4 -164 c-3 -161 -3 -164 -34 -218 -34 -61
-105 -121 -164 -139 -27 -8 -603 -11 -2127 -11 l-2090 0 -61 31 c-65 32 -99
66 -135 133 l-22 41 0 1350 0 1350 22 41 c36 67 70 101 135 133 l61 31 2097 0
2097 0 61 -31z m-148 -919 l0 -640 -82 0 c-149 0 -290 -51 -391 -140 l-48 -42
-47 11 c-26 7 -64 16 -84 22 l-38 10 0 129 c0 156 -3 161 -131 210 -84 31 -87
33 -99 73 -6 23 -30 81 -52 129 l-41 87 42 95 c29 65 40 103 36 119 -4 14 -68
86 -144 161 -111 109 -143 136 -165 136 -16 0 -67 -17 -115 -39 l-87 -38 -45
23 c-24 13 -82 37 -129 54 l-85 31 -33 89 c-50 131 -37 125 -272 125 -235 0
-222 6 -272 -125 l-33 -89 -85 -31 c-47 -17 -105 -41 -129 -54 l-45 -23 -87
38 c-48 22 -99 39 -115 39 -22 0 -54 -27 -165 -136 -76 -75 -140 -147 -144
-161 -4 -16 7 -54 36 -119 l42 -95 -41 -87 c-22 -48 -46 -106 -52 -129 -12
-40 -15 -42 -99 -73 -134 -49 -131 -44 -131 -275 0 -231 -3 -226 131 -275 84
-31 87 -33 99 -73 6 -23 30 -81 52 -129 l41 -87 -42 -94 c-22 -52 -41 -98 -41
-103 0 -5 7 -21 14 -36 l15 -28 -480 0 -479 0 0 1090 0 1090 2010 0 2010 0 0
-640z m-1864 362 c18 -46 37 -89 44 -96 6 -8 50 -26 98 -41 48 -15 127 -48
176 -73 l89 -45 41 16 c23 8 65 26 94 38 l53 23 80 -80 80 -80 -35 -78 c-20
-43 -36 -90 -36 -103 0 -14 15 -52 34 -86 19 -34 49 -105 66 -157 18 -52 38
-104 45 -115 7 -12 50 -35 99 -53 l86 -33 0 -69 0 -68 -166 43 c-92 24 -167
45 -168 47 -1 2 -8 36 -14 76 -63 384 -417 682 -811 682 -377 0 -706 -257
-802 -625 -29 -111 -29 -289 0 -400 101 -387 454 -646 849 -622 239 14 462
132 608 321 l31 39 74 -20 74 -20 -3 -39 c-2 -28 7 -61 33 -118 l36 -80 -80
-80 -80 -80 -53 23 c-29 12 -71 30 -94 38 l-41 16 -89 -45 c-49 -25 -128 -58
-176 -73 -48 -15 -92 -33 -98 -41 -7 -7 -26 -50 -44 -96 l-32 -83 -114 0 -114
0 -32 83 c-18 46 -37 89 -44 96 -6 8 -50 26 -98 41 -48 15 -127 48 -176 73
l-89 45 -41 -16 c-23 -8 -65 -26 -94 -38 l-53 -23 -80 80 -80 80 35 78 c20 43
36 90 36 103 0 14 -15 52 -34 86 -19 34 -51 109 -71 167 -20 58 -41 110 -48
117 -7 6 -49 26 -94 43 l-83 31 0 114 0 114 86 33 c49 18 92 41 99 53 7 11 27
63 45 115 17 52 47 123 66 157 19 34 34 72 34 86 0 13 -16 60 -36 103 l-35 78
80 80 80 80 53 -23 c29 -12 71 -30 94 -38 l41 -16 89 45 c49 25 127 58 174 72
46 15 90 32 97 37 7 6 26 48 44 92 17 45 33 86 36 90 2 4 55 6 116 5 l111 -3
32 -83z m61 -446 c162 -52 309 -179 384 -331 40 -82 68 -170 57 -180 -3 -4
-23 -3 -43 1 -27 5 -39 14 -47 33 -41 101 -86 179 -138 234 -217 232 -588 245
-812 28 -50 -49 -58 -62 -58 -93 0 -27 7 -42 24 -56 14 -11 119 -43 248 -76
l224 -58 22 -81 23 -81 -59 -59 -59 -59 -215 56 c-119 31 -230 56 -247 56 -82
0 -93 -87 -27 -224 71 -148 224 -269 386 -307 70 -16 190 -16 260 0 79 19 187
74 247 127 52 45 53 45 93 33 22 -7 40 -15 40 -18 0 -4 -21 -28 -47 -53 -114
-110 -266 -176 -429 -185 -268 -16 -512 129 -629 372 -51 105 -68 179 -68 290
0 111 17 185 68 290 87 182 239 305 440 357 100 26 252 19 362 -16z m-131
-227 c158 -29 286 -152 329 -315 8 -32 23 -67 33 -77 20 -19 1032 -287 1086
-287 21 0 40 11 66 39 64 67 128 110 196 131 126 38 264 18 370 -55 45 -31
104 -93 104 -108 0 -3 -78 15 -174 39 -127 32 -181 42 -198 35 -13 -5 -69 -56
-125 -114 -89 -92 -103 -110 -103 -139 0 -49 69 -290 88 -310 10 -10 87 -35
182 -59 91 -23 169 -46 174 -50 5 -4 -24 -18 -64 -30 -195 -59 -403 30 -494
212 -19 37 -37 86 -41 107 -3 22 -16 49 -28 60 -16 15 -166 58 -545 156 -288
75 -532 136 -543 136 -11 0 -51 -29 -88 -64 -81 -76 -129 -103 -222 -122 -132
-27 -277 17 -373 115 -28 28 -47 53 -44 57 4 3 78 -13 166 -35 88 -23 170 -41
183 -41 16 0 54 32 131 113 60 61 111 121 114 133 8 31 -66 293 -91 320 -15
18 -60 33 -185 65 -91 23 -167 43 -168 44 -7 7 45 29 93 41 64 16 98 16 171 3z
m2192 -845 l52 -15 0 -148 0 -148 -220 56 c-121 31 -224 61 -228 66 -5 6 -17
43 -28 83 l-18 72 58 59 58 58 136 -34 c76 -18 161 -40 190 -49z m-1075 -153
c87 -23 160 -41 163 -41 2 0 4 -8 4 -17 0 -10 17 -53 38 -95 l38 -78 -193 0
-193 0 16 34 c16 33 16 35 -25 127 -46 105 -49 123 -23 115 9 -2 88 -23 175
-45z m-523 -1226 l0 -215 -670 0 -670 0 0 215 0 215 670 0 670 0 0 -215z m773
-404 c26 -12 60 -39 75 -59 25 -33 27 -44 30 -144 l4 -108 -1551 0 -1551 0 0
96 c0 110 14 151 66 191 72 54 10 52 1499 50 l1380 -2 48 -24z"/>
</g>
</svg>
