<?xml version="1.0" standalone="no"?>
<!DOCTYPE svg PUBLIC "-//W3C//DTD SVG 20010904//EN"
 "http://www.w3.org/TR/2001/REC-SVG-20010904/DTD/svg10.dtd">
<svg version="1.0" xmlns="http://www.w3.org/2000/svg"
 width="512.000000pt" height="512.000000pt" viewBox="0 0 512.000000 512.000000"
 preserveAspectRatio="xMidYMid meet">

<g transform="translate(0.000000,512.000000) scale(0.100000,-0.100000)"
fill="#f98520" stroke="none">
<path d="M1465 4776 c-28 -12 -65 -39 -82 -59 -64 -73 -64 -74 -61 -793 3
-644 3 -649 25 -689 12 -22 36 -54 55 -72 65 -63 66 -63 508 -63 l400 0 0 -95
0 -95 -104 0 c-87 0 -108 -3 -127 -19 -31 -25 -32 -83 -1 -114 l23 -22 459 0
459 0 23 22 c31 31 30 89 -1 114 -19 16 -40 19 -127 19 l-104 0 0 95 0 95 400
0 c442 0 443 0 508 63 19 18 43 50 55 72 22 40 22 45 25 689 3 719 3 720 -61
793 -17 20 -54 47 -82 59 l-50 24 -1045 0 -1045 0 -50 -24z m2146 -165 l29
-29 0 -506 0 -506 -1080 0 -1080 0 0 506 0 506 29 29 29 29 1022 0 1022 0 29
-29z m27 -1235 c5 -40 -5 -73 -28 -96 -20 -20 -38 -20 -1044 -20 -563 0 -1032
3 -1041 6 -32 13 -61 114 -38 137 3 4 488 6 1077 5 l1071 -3 3 -29z m-988
-371 l0 -95 -90 0 -90 0 0 95 0 95 90 0 90 0 0 -95z"/>
<path d="M2505 2545 c-24 -23 -25 -29 -25 -155 l0 -130 -682 0 c-763 0 -725 3
-795 -71 -52 -56 -63 -94 -63 -229 0 -107 2 -122 20 -140 30 -30 83 -30 115 1
17 17 21 37 25 135 4 100 8 118 24 130 17 12 127 14 688 14 l668 0 0 -124 c0
-110 2 -126 21 -150 29 -37 89 -37 118 0 19 24 21 40 21 150 l0 124 668 0
c561 0 671 -2 688 -14 16 -12 20 -30 24 -130 4 -98 8 -118 25 -135 32 -31 85
-31 115 -1 18 18 20 33 20 140 0 135 -11 173 -63 229 -70 74 -32 71 -794 71
l-683 0 0 130 c0 126 -1 132 -25 155 -15 16 -36 25 -55 25 -19 0 -40 -9 -55
-25z"/>
<path d="M415 1596 c-41 -18 -83 -69 -90 -109 -3 -18 -5 -195 -3 -394 3 -347
4 -363 24 -389 51 -69 49 -69 335 -72 l259 -3 0 -74 0 -75 -90 0 c-83 0 -93
-2 -115 -25 -33 -32 -33 -78 0 -110 l24 -25 255 0 c253 0 255 0 282 23 37 33
37 81 0 114 -24 20 -37 23 -112 23 l-84 0 0 75 0 75 248 0 c237 0 249 1 286
23 76 43 76 44 76 467 0 423 0 424 -76 467 l-39 23 -575 -1 c-456 0 -581 -3
-605 -13z m1135 -476 l0 -330 -535 0 -535 0 0 330 0 330 535 0 535 0 0 -330z"/>
<path d="M1970 1603 c-37 -14 -74 -49 -91 -87 -17 -38 -19 -71 -19 -396 0
-397 3 -412 71 -461 33 -24 38 -24 292 -27 l257 -3 0 -74 0 -75 -88 0 c-75 0
-92 -3 -110 -20 -28 -27 -37 -62 -21 -92 25 -46 30 -47 297 -48 l254 0 29 29
c16 16 29 39 29 51 0 12 -13 35 -29 51 -28 28 -34 29 -115 29 l-86 0 0 75 0
74 258 3 c382 4 362 -23 362 488 0 397 -3 412 -71 461 l-34 24 -585 2 c-322 1
-592 -1 -600 -4z m1130 -483 l0 -330 -540 0 -540 0 0 330 0 330 540 0 540 0 0
-330z"/>
<path d="M3484 1585 c-74 -44 -74 -45 -74 -465 0 -421 0 -422 75 -465 41 -25
44 -25 288 -25 l247 0 0 -75 0 -75 -84 0 c-75 0 -88 -3 -112 -23 -37 -33 -37
-81 0 -114 27 -23 29 -23 282 -23 l255 0 24 25 c33 32 33 78 0 110 -22 23 -32
25 -115 25 l-90 0 0 75 0 74 259 3 c286 3 284 3 335 72 20 27 21 39 21 416 0
377 -1 389 -21 416 -11 15 -33 37 -48 48 -27 21 -39 21 -614 24 l-587 2 -41
-25z m1156 -465 l0 -330 -535 0 -535 0 0 330 0 330 535 0 535 0 0 -330z"/>
</g>
</svg>
