<?xml version="1.0" standalone="no"?>
<!DOCTYPE svg PUBLIC "-//W3C//DTD SVG 20010904//EN"
 "http://www.w3.org/TR/2001/REC-SVG-20010904/DTD/svg10.dtd">
<svg version="1.0" xmlns="http://www.w3.org/2000/svg"
 width="512.000000pt" height="512.000000pt" viewBox="0 0 512.000000 512.000000"
 preserveAspectRatio="xMidYMid meet">

<g transform="translate(0.000000,512.000000) scale(0.100000,-0.100000)"
fill="#f98520" stroke="none">
<path d="M2303 4975 c-11 -8 -29 -37 -39 -64 -16 -47 -20 -50 -83 -75 l-67
-26 -51 21 c-30 13 -60 19 -75 16 -13 -4 -63 -46 -111 -95 -96 -99 -101 -112
-66 -184 l20 -43 -20 -47 -20 -48 -529 0 c-312 0 -551 -4 -583 -10 -132 -25
-251 -119 -312 -247 l-32 -68 -3 -275 -3 -275 -31 -32 c-39 -40 -40 -70 -5
-147 l27 -58 -37 -94 -37 -94 -68 -26 c-38 -14 -75 -35 -83 -47 -22 -31 -22
-313 0 -344 8 -12 45 -33 83 -47 l68 -26 37 -94 37 -94 -27 -58 c-35 -77 -34
-107 5 -147 l31 -32 3 -365 3 -365 32 -68 c38 -79 114 -163 181 -200 103 -56
115 -57 754 -57 l588 0 -2 -197 -3 -198 -280 -5 c-306 -6 -321 -8 -410 -70
-52 -35 -86 -77 -114 -140 -18 -39 -21 -66 -21 -208 0 -160 0 -163 25 -187
l24 -25 1576 0 1576 0 24 25 c24 23 25 28 25 177 0 84 -5 170 -10 190 -17 59
-71 130 -130 170 -92 62 -132 68 -428 68 l-262 0 0 200 0 199 613 3 612 3 58
23 c109 44 205 140 249 250 l23 57 3 1274 c2 1126 1 1281 -13 1335 -28 108
-91 194 -188 257 -107 69 -102 69 -964 69 l-769 0 -22 45 -22 46 20 39 c11 22
20 56 20 76 0 33 -9 46 -83 120 -46 45 -95 86 -110 89 -18 5 -45 0 -80 -14
l-52 -21 -55 23 c-74 30 -77 33 -85 67 -4 17 -18 44 -32 60 l-25 30 -127 0
c-96 0 -132 -4 -148 -15z m203 -185 c17 -43 56 -80 83 -80 9 0 49 -16 90 -35
83 -40 90 -41 149 -18 l43 16 29 -28 28 -27 -20 -53 -20 -53 35 -74 c19 -40
38 -87 41 -104 8 -38 38 -67 89 -88 34 -14 37 -18 37 -54 0 -36 -2 -39 -52
-63 -44 -20 -55 -30 -67 -64 -7 -22 -30 -75 -49 -118 l-36 -78 21 -48 20 -49
-30 -30 -29 -30 -50 21 -49 20 -77 -35 c-42 -20 -95 -42 -117 -49 -34 -12 -44
-23 -64 -67 -24 -50 -27 -52 -63 -52 -36 0 -40 3 -58 43 -23 52 -45 73 -85 82
-16 4 -63 23 -104 42 l-74 35 -52 -20 -53 -20 -27 28 -28 29 16 43 c23 59 22
66 -18 149 -19 41 -35 81 -35 90 0 27 -37 66 -80 83 -38 15 -40 18 -40 58 0
42 1 44 52 68 50 24 53 28 74 90 11 36 31 84 43 107 25 51 26 71 4 118 l-17
36 32 31 31 32 36 -17 c47 -22 67 -21 118 4 23 12 71 32 107 43 62 21 66 24
90 74 24 51 26 52 68 52 40 0 43 -2 58 -40z m-856 -585 l0 -64 -468 -3 c-519
-3 -500 -1 -542 -71 -18 -29 -20 -51 -20 -209 l0 -177 -37 16 c-21 9 -50 15
-65 15 l-28 -1 0 173 0 173 31 62 c35 70 77 106 152 132 47 17 97 18 515 19
l462 0 0 -65z m3039 49 c61 -18 131 -77 164 -139 l22 -40 0 -1280 0 -1280 -22
-41 c-28 -53 -74 -99 -127 -127 l-41 -22 -2000 0 -2000 0 -54 30 c-56 31 -106
88 -128 148 -8 21 -12 120 -12 294 l-1 262 28 -1 c15 0 44 6 64 15 l38 16 0
-134 c0 -144 8 -176 47 -194 16 -8 186 -11 552 -11 l529 0 -5 -44 c-17 -150
127 -279 277 -248 115 24 203 145 186 254 l-6 38 1246 0 1246 0 29 29 29 29 0
1109 c0 1035 -1 1110 -18 1142 -9 19 -30 44 -45 55 -28 21 -38 21 -733 24
l-704 3 0 64 0 65 693 0 c600 0 700 -2 746 -16z m-2883 -331 l25 -57 -21 -50
c-33 -79 -30 -88 68 -187 79 -81 91 -89 125 -89 21 0 54 8 75 19 37 18 37 18
102 -9 59 -24 66 -30 81 -70 9 -24 28 -54 43 -67 25 -21 37 -23 136 -23 141 0
155 6 186 78 24 54 29 58 88 83 61 25 63 25 102 8 79 -35 98 -29 196 69 98 98
104 117 69 197 -17 39 -17 40 7 97 l25 58 736 -2 736 -3 3 -1032 2 -1033
-1270 0 -1270 0 0 79 c0 91 0 91 -108 176 l-74 57 27 28 c34 36 35 72 2 144
l-27 58 37 94 37 94 68 26 c75 29 98 52 98 101 l0 33 98 0 97 0 35 -47 c50
-68 108 -98 191 -98 56 0 73 5 115 30 30 19 60 49 79 79 26 43 30 59 30 121 0
62 -4 78 -30 121 -19 30 -49 60 -79 79 -113 69 -273 19 -329 -102 -10 -22 -16
-23 -109 -23 l-98 0 0 38 c0 54 -21 77 -98 106 l-68 26 -37 94 -37 94 27 58
c43 94 40 102 -85 226 -124 125 -132 128 -226 85 l-58 -27 -94 37 -94 37 -26
68 c-14 38 -35 75 -47 83 -31 22 -313 22 -344 0 -12 -8 -33 -46 -48 -84 -22
-58 -31 -71 -57 -80 -17 -6 -33 -11 -34 -11 -7 0 -4 257 3 263 3 4 228 7 500
7 l493 0 26 -57z m-616 -242 c27 -73 39 -84 112 -105 31 -9 87 -32 124 -51 74
-39 101 -42 144 -20 73 38 73 37 128 -18 l52 -52 -25 -54 c-33 -69 -32 -85 10
-165 19 -37 42 -93 51 -124 21 -73 32 -85 105 -112 l59 -22 0 -73 0 -73 -59
-22 c-73 -27 -84 -39 -105 -112 -9 -31 -32 -87 -51 -124 -42 -79 -42 -95 -11
-166 l24 -55 -51 -51 -52 -52 -54 25 c-69 33 -85 32 -165 -10 -37 -19 -93 -42
-124 -51 -73 -21 -85 -32 -112 -105 l-22 -59 -73 0 -73 0 -22 59 c-12 33 -29
66 -38 74 -10 7 -48 24 -87 36 -38 13 -94 36 -122 52 -59 33 -91 36 -133 14
-73 -38 -73 -37 -128 18 l-52 52 25 54 c33 69 32 85 -10 165 -19 37 -42 93
-51 124 -21 73 -32 85 -105 112 l-59 22 0 73 0 73 59 22 c73 27 84 39 105 112
9 31 32 87 51 124 39 74 42 101 20 144 -38 73 -37 73 18 128 l52 52 54 -25
c69 -33 85 -32 165 10 37 19 93 42 124 51 73 21 85 32 112 105 l22 59 73 0 73
0 22 -59z m1384 -742 c19 -15 26 -30 26 -54 0 -36 -36 -75 -70 -75 -34 0 -70
39 -70 75 0 36 36 75 70 75 10 0 29 -9 44 -21z m-989 -855 c72 -33 109 -33
144 0 l26 25 68 -55 c64 -53 67 -57 67 -100 l0 -44 -299 0 -300 0 25 63 c13
34 28 63 32 65 4 1 43 18 87 36 44 18 83 34 86 35 4 0 33 -11 64 -25z m-766
-35 c17 -6 31 -12 31 -13 0 -1 11 -30 24 -64 l25 -62 -60 0 -59 0 0 75 c0 41
2 75 4 75 1 0 17 -5 35 -11z m1212 -315 c17 -21 17 -81 -2 -99 -8 -8 -29 -17
-46 -21 -26 -5 -37 -1 -57 19 -30 30 -33 62 -10 95 19 27 94 31 115 6z m1287
-771 l-3 -198 -632 -3 -633 -2 0 200 0 200 635 0 635 0 -2 -197z m720 -378
c86 -37 112 -84 112 -205 l0 -90 -1465 0 -1465 0 0 100 c0 98 1 100 32 136 18
21 51 45 73 55 38 18 105 19 1358 19 1167 0 1322 -2 1355 -15z"/>
<path d="M2321 4560 c-104 -38 -182 -109 -230 -210 -23 -48 -26 -68 -26 -155
0 -91 3 -106 31 -165 56 -118 162 -198 293 -221 250 -44 486 193 441 443 -17
91 -42 141 -105 207 -77 81 -151 114 -265 118 -67 3 -97 -1 -139 -17z m225
-164 c140 -65 172 -244 65 -359 -115 -125 -326 -79 -380 82 -64 191 131 363
315 277z"/>
<path d="M3255 3819 c-16 -5 -36 -16 -42 -26 -20 -26 -16 -80 7 -103 19 -19
33 -20 550 -20 517 0 531 1 550 20 22 22 26 69 10 100 -6 11 -27 24 -48 30
-46 12 -984 12 -1027 -1z"/>
<path d="M3222 3447 c-27 -29 -28 -77 -3 -108 l19 -24 532 0 532 0 19 24 c26
32 25 82 -4 109 l-23 22 -525 0 -526 0 -21 -23z"/>
<path d="M3226 3099 c-37 -29 -37 -89 0 -118 26 -21 36 -21 544 -21 508 0 518
0 544 21 37 29 37 89 0 118 -26 21 -36 21 -544 21 -508 0 -518 0 -544 -21z"/>
<path d="M3243 2760 c-47 -19 -58 -92 -20 -128 l23 -22 525 0 526 0 21 23 c27
29 28 77 3 108 l-19 24 -519 2 c-287 1 -528 -2 -540 -7z"/>
<path d="M3244 2406 c-48 -21 -61 -89 -24 -126 19 -19 33 -20 550 -20 517 0
531 1 550 20 21 21 26 69 10 100 -20 37 -58 40 -564 40 -389 -1 -497 -4 -522
-14z"/>
<path d="M973 3376 c-181 -44 -334 -202 -372 -384 -36 -173 14 -340 139 -463
203 -200 510 -200 709 0 202 203 203 510 1 711 -127 128 -303 178 -477 136z
m270 -179 c65 -32 140 -109 170 -175 31 -67 31 -207 0 -274 -30 -66 -105 -143
-172 -175 -49 -24 -68 -28 -146 -28 -78 0 -97 4 -146 28 -67 32 -142 109 -172
175 -31 67 -31 207 0 274 25 54 90 128 140 159 92 57 228 63 326 16z"/>
</g>
</svg>
