<?xml version="1.0" standalone="no"?>
<!DOCTYPE svg PUBLIC "-//W3C//DTD SVG 20010904//EN"
 "http://www.w3.org/TR/2001/REC-SVG-20010904/DTD/svg10.dtd">
<svg version="1.0" xmlns="http://www.w3.org/2000/svg"
 width="512.000000pt" height="512.000000pt" viewBox="0 0 512.000000 512.000000"
 preserveAspectRatio="xMidYMid meet">

<g transform="translate(0.000000,512.000000) scale(0.100000,-0.100000)"
fill="#000000" stroke="none">
<path d="M2506 4918 c-32 -28 -2495 -4600 -2503 -4645 -4 -26 0 -37 25 -63
l30 -30 2502 0 2502 0 30 30 c25 26 29 37 25 63 -8 45 -2471 4617 -2503 4645
-14 12 -38 22 -54 22 -16 0 -40 -10 -54 -22z m434 -954 c206 -383 376 -702
378 -709 2 -8 -48 -22 -165 -45 -92 -18 -180 -39 -194 -46 -26 -13 -51 -63
-120 -241 -13 -35 -26 -63 -29 -63 -3 0 -65 105 -138 234 -94 163 -141 237
-158 245 -38 17 -70 13 -98 -11 -14 -13 -81 -121 -150 -241 -68 -120 -126
-215 -129 -210 -2 4 -50 146 -106 314 l-102 307 313 581 c172 319 315 581 318
581 3 0 174 -313 380 -696z m-875 -1381 c30 -26 71 -30 101 -8 12 8 84 124
160 259 76 135 141 246 144 246 3 0 70 -112 149 -249 99 -172 151 -252 168
-260 75 -34 103 0 199 241 48 122 84 200 93 202 53 15 332 69 336 64 3 -3 334
-614 735 -1359 l729 -1354 -1159 -3 c-638 -1 -1682 -1 -2320 0 l-1159 3 700
1300 c385 715 739 1372 786 1460 l87 159 113 -339 c89 -270 118 -345 138 -362z"/>
</g>
</svg>
